<?xml version="1.0" encoding="UTF-8" standalone="no"?>
<svg
   xmlns:dc="http://purl.org/dc/elements/1.1/"
   xmlns:cc="http://creativecommons.org/ns#"
   xmlns:rdf="http://www.w3.org/1999/02/22-rdf-syntax-ns#"
   xmlns:svg="http://www.w3.org/2000/svg"
   xmlns="http://www.w3.org/2000/svg"
   xmlns:sodipodi="http://sodipodi.sourceforge.net/DTD/sodipodi-0.dtd"
   xmlns:inkscape="http://www.inkscape.org/namespaces/inkscape"
   role="img"
   viewBox="0 0 24 24"
   id="svg2"
   version="1.1"
   inkscape:version="1.0.2-2 (e86c870879, 2021-01-15)"
   width="100%"
   height="100%"
   sodipodi:docname="adobephotoshop.svg">
  <metadata
     id="metadata12">
    <rdf:RDF>
      <cc:Work
         rdf:about="">
        <dc:format>image/svg+xml</dc:format>
        <dc:type
           rdf:resource="http://purl.org/dc/dcmitype/StillImage" />
      </cc:Work>
    </rdf:RDF>
  </metadata>
  <defs
     id="defs10">
    <filter
       inkscape:collect="always"
       style="color-interpolation-filters:sRGB"
       id="filter843"
       x="-2.7301823e-05"
       width="1.0000546"
       y="-2.8003067e-05"
       height="1.000056">
      <feGaussianBlur
         inkscape:collect="always"
         stdDeviation="0.00011744295"
         id="feGaussianBlur845" />
    </filter>
  </defs>
  <sodipodi:namedview
     pagecolor="#ffffff"
     bordercolor="#666666"
     borderopacity="1"
     objecttolerance="10"
     gridtolerance="10"
     guidetolerance="10"
     inkscape:pageopacity="0"
     inkscape:pageshadow="2"
     inkscape:window-width="1920"
     inkscape:window-height="1001"
     id="namedview8"
     showgrid="false"
     inkscape:zoom="12.125"
     inkscape:cx="12"
     inkscape:cy="12"
     inkscape:window-x="-9"
     inkscape:window-y="-9"
     inkscape:window-maximized="1"
     inkscape:current-layer="svg2"
     inkscape:document-rotation="0" />
  <title
     id="title4">Adobe Photoshop icon</title>
  <path
     d="m 10.985327,10.689833 c -0.15916,-0.06452 -0.331227,-0.09033 -0.507595,-0.08603 -0.111844,0 -0.210781,0 -0.292513,0.0043 -0.08603,-0.0043 -0.146255,0 -0.176366,0.0043 v 1.445356 c 0.06021,0.0044 0.116144,0.0086 0.167763,0.0086 h 0.227989 c 0.167763,0 0.335528,-0.02581 0.494688,-0.07743 0.137654,-0.03873 0.258099,-0.120449 0.352735,-0.227993 0.09033,-0.107538 0.133353,-0.253795 0.133353,-0.443069 0.0044,-0.133351 -0.03011,-0.266701 -0.09894,-0.382847 -0.07313,-0.111844 -0.17637,-0.197879 -0.301117,-0.245197 z M 15.243964,7.19689 H 8.5764015 c -1.0108883,0 -1.8282022,0.817314 -1.8282022,1.8282022 v 6.4090318 c 0,1.010888 0.8173139,1.828202 1.8282022,1.828202 h 6.6675625 c 1.010887,0 1.828201,-0.817314 1.828201,-1.828202 V 9.0250922 c 0,-1.0108882 -0.817314,-1.8282022 -1.828201,-1.8282022 z m -3.179353,5.011424 c -0.171636,0.240893 -0.412527,0.421563 -0.692135,0.524804 -0.292512,0.10754 -0.615136,0.146254 -0.967871,0.146254 -0.10324,0 -0.172067,0 -0.215084,-0.0044 -0.04301,-0.0044 -0.103239,-0.0044 -0.184971,-0.0044 v 1.380402 c 0.0043,0.0301 -0.017211,0.05635 -0.04732,0.06065 H 9.1227116 c -0.034413,0 -0.051619,-0.01764 -0.051619,-0.05635 V 9.8295013 c 0,-0.030111 0.012906,-0.047318 0.043017,-0.047318 0.073127,0 0.1419546,0 0.2408924,-0.0043 0.1032398,-0.0043 0.210781,-0.0043 0.3269258,-0.00861 0.116144,-0.0043 0.2408917,-0.0043 0.3742442,-0.00861 0.13335,-0.0043 0.2624,-0.0043 0.39145,-0.0043 0.352736,0 0.645249,0.043017 0.88614,0.1333514 0.215083,0.073127 0.412959,0.1935743 0.576422,0.3527353 0.137652,0.137653 0.245195,0.305417 0.314021,0.490388 0.06409,0.180673 0.09851,0.365643 0.09851,0.559218 4.3e-4,0.369942 -0.0856,0.675359 -0.258098,0.916252 z m 3.050302,1.673344 c -0.120446,0.172066 -0.28864,0.304987 -0.481785,0.383277 -0.210781,0.0899 -0.468881,0.136792 -0.779029,0.136792 -0.197446,0 -0.391449,-0.01678 -0.584596,-0.05548 -0.150556,-0.02624 -0.301114,-0.07313 -0.438767,-0.137651 -0.03011,-0.01679 -0.05204,-0.04688 -0.04774,-0.0813 v -0.74849 c 0,-0.01247 0.0047,-0.03012 0.01764,-0.03871 0.01246,-0.0086 0.02581,-0.0044 0.03871,0.0044 0.167762,0.09894 0.344132,0.168192 0.533402,0.21078 0.163034,0.043 0.3351,0.06454 0.507598,0.06454 0.163461,0 0.279606,-0.02194 0.357036,-0.06064 0.06882,-0.03011 0.116144,-0.103243 0.116144,-0.180672 0,-0.06064 -0.03442,-0.116143 -0.103239,-0.172065 -0.06882,-0.05549 -0.210351,-0.120017 -0.421131,-0.202609 -0.219381,-0.07743 -0.42113,-0.180669 -0.610831,-0.309289 -0.133353,-0.09506 -0.244764,-0.219384 -0.327356,-0.365641 -0.06841,-0.137653 -0.10281,-0.288209 -0.09851,-0.439198 0,-0.184972 0.05163,-0.361338 0.146687,-0.520501 0.107541,-0.172065 0.266272,-0.309717 0.451243,-0.395752 0.201748,-0.102809 0.455546,-0.150127 0.760962,-0.150127 0.176369,0 0.357037,0.01291 0.533406,0.03871 0.129048,0.0172 0.253796,0.05163 0.369941,0.09894 0.01677,0.0044 0.03442,0.02151 0.043,0.03871 0.0044,0.0172 0.0086,0.03442 0.0086,0.05163 v 0.70117 c 0,0.0172 -0.0086,0.03442 -0.02152,0.043 -0.03871,0.0086 -0.06023,0.0086 -0.07743,0 -0.12905,-0.06882 -0.266704,-0.116147 -0.412959,-0.146258 -0.159162,-0.03441 -0.318323,-0.05593 -0.481785,-0.05593 -0.08603,-0.0044 -0.176369,0.0086 -0.25853,0.0301 -0.05548,0.01291 -0.103239,0.04301 -0.133351,0.08603 -0.02151,0.03441 -0.03441,0.07743 -0.03441,0.116144 0,0.03871 0.0172,0.07743 0.04344,0.111842 0.03871,0.04732 0.0899,0.08603 0.146257,0.116146 0.09851,0.05162 0.202177,0.09894 0.304986,0.141953 0.232721,0.07743 0.456405,0.184972 0.662886,0.314021 0.141954,0.0899 0.258099,0.210783 0.3394,0.357038 0.06882,0.136792 0.103238,0.288211 0.09894,0.442641 0.0047,0.202608 -0.05548,0.404353 -0.167332,0.572549 z"
     id="path6"
     inkscape:connector-curvature="0"
     style="fill:#2ea1f0;fill-opacity:1;filter:url(#filter843)" />
</svg>
