<?xml version="1.0" encoding="UTF-8" standalone="no"?>
<svg
   xmlns:dc="http://purl.org/dc/elements/1.1/"
   xmlns:cc="http://creativecommons.org/ns#"
   xmlns:rdf="http://www.w3.org/1999/02/22-rdf-syntax-ns#"
   xmlns:svg="http://www.w3.org/2000/svg"
   xmlns="http://www.w3.org/2000/svg"
   xmlns:sodipodi="http://sodipodi.sourceforge.net/DTD/sodipodi-0.dtd"
   xmlns:inkscape="http://www.inkscape.org/namespaces/inkscape"
   role="img"
   viewBox="0 0 24 24"
   version="1.1"
   id="svg6"
   sodipodi:docname="adobexd.svg"
   inkscape:version="1.0.2-2 (e86c870879, 2021-01-15)">
  <metadata
     id="metadata12">
    <rdf:RDF>
      <cc:Work
         rdf:about="">
        <dc:format>image/svg+xml</dc:format>
        <dc:type
           rdf:resource="http://purl.org/dc/dcmitype/StillImage" />
        <dc:title>Adobe XD icon</dc:title>
      </cc:Work>
    </rdf:RDF>
  </metadata>
  <defs
     id="defs10" />
  <sodipodi:namedview
     pagecolor="#ffffff"
     bordercolor="#666666"
     borderopacity="1"
     objecttolerance="10"
     gridtolerance="10"
     guidetolerance="10"
     inkscape:pageopacity="0"
     inkscape:pageshadow="2"
     inkscape:window-width="1920"
     inkscape:window-height="1001"
     id="namedview8"
     showgrid="false"
     inkscape:snap-center="true"
     inkscape:snap-grids="true"
     inkscape:zoom="24.45411"
     inkscape:cx="10.167479"
     inkscape:cy="15.413519"
     inkscape:window-x="-9"
     inkscape:window-y="-9"
     inkscape:window-maximized="1"
     inkscape:current-layer="svg6"
     inkscape:document-rotation="0" />
  <title
     id="title2">Adobe XD icon</title>
  <path
     d="M 15.061206,6.7958406 H 8.9975126 c -1.2653248,0 -2.2910733,1.0257484 -2.2910734,2.2910732 v 5.7975472 c 2e-7,1.265325 1.0257487,2.291073 2.2910734,2.291073 h 6.0636934 c 1.265325,0 2.291074,-1.025748 2.291074,-2.291073 V 9.0869138 c 0,-1.2653251 -1.025749,-2.2910735 -2.291074,-2.2910732 z M 12.35294,14.311159 h -1.014459 c -0.07098,0 -0.121541,-0.0027 -0.149929,-0.05013 -0.09537,-0.185859 -0.190738,-0.370386 -0.285664,-0.553585 -0.09815,-0.188492 -0.199301,-0.375409 -0.303405,-0.56068 -0.108157,-0.191771 -0.214179,-0.384739 -0.318046,-0.578868 h -0.0071 c -0.09613,0.191793 -0.194895,0.382253 -0.2962681,0.571327 -0.1020223,0.190295 -0.2036009,0.379701 -0.3034057,0.567778 -0.099712,0.188227 -0.2018911,0.375137 -0.3065115,0.560681 -0.019517,0.04302 -0.052785,0.04746 -0.1006919,0.04746 H 8.2893334 c -0.019075,0 -0.02972,0.0076 -0.031937,-0.01153 -0.00257,-0.01745 0.00121,-0.03524 0.010645,-0.05014 L 9.6462348,11.989027 8.3035285,9.7188013 c -0.014637,-0.019075 -0.016855,-0.034601 -0.0071,-0.04746 0.010652,-0.012493 0.026665,-0.019096 0.043027,-0.017741 h 1.0069237 c 0.021944,-9.112e-4 0.04384,0.00271 0.064319,0.010649 0.016999,0.00977 0.031559,0.023265 0.042583,0.039477 0.085611,0.1907379 0.1809793,0.3810337 0.2856634,0.5713267 0.1046842,0.190294 0.2106982,0.378371 0.3176014,0.564229 0.106902,0.185859 0.205819,0.373935 0.296309,0.56423 h 0.0071 c 0.09448,-0.195174 0.190739,-0.385468 0.289213,-0.571326 0.09847,-0.185858 0.198278,-0.372604 0.299857,-0.56068 0.102466,-0.18852 0.20094,-0.3757098 0.296309,-0.560681 0.0053,-0.017838 0.01507,-0.034024 0.02839,-0.047021 0.0177,-0.00882 0.03752,-0.012505 0.05721,-0.010649 h 0.935503 c 0.0219,-0.00534 0.04404,0.00789 0.0497,0.029717 0.0038,0.015383 -0.0015,0.031588 -0.01374,0.041693 l 4.44e-4,0.00174 -1.328512,2.1926 1.421219,2.328333 c 0.0093,0.01641 0.01153,0.03548 0.0071,0.05367 -0.0044,0.01597 -0.02085,0.0053 -0.0497,0.0102 z m 3.407113,-0.186304 c -0.232169,0.09671 -0.47394,0.168528 -0.721256,0.214248 -0.226338,0.04203 -0.456007,0.06356 -0.686213,0.06432 -0.328604,0.0048 -0.654183,-0.06335 -0.953245,-0.19961 -0.278625,-0.129017 -0.511557,-0.339521 -0.668028,-0.603707 -0.171961,-0.308235 -0.25604,-0.657749 -0.243079,-1.010469 -0.0026,-0.327784 0.0812,-0.650468 0.243079,-0.935503 0.166774,-0.290368 0.411974,-0.527882 0.707505,-0.685325 0.373461,-0.195161 0.793708,-0.282987 1.21407,-0.253724 0.03815,0.0023 0.0834,0.0058 0.135735,0.01063 V 9.3187031 c 0,-0.033268 0.01419,-0.050126 0.04302,-0.050126 h 0.899573 c 0.02081,-0.0029 0.04004,0.01158 0.04302,0.032378 4.46e-4,0.00354 4.46e-4,0.00711 0,0.010649 v 4.2215189 c 0,0.08118 0.0035,0.169002 0.01064,0.264371 0.0071,0.09493 0.01331,0.180536 0.01773,0.256831 0.0019,0.03009 -0.01507,0.05821 -0.04258,0.07054 z m -1.089867,-2.578066 c 0.03992,0.0039 0.07941,0.0111 0.11799,0.02129 v 1.949518 c -0.05114,0.01522 -0.103798,0.02474 -0.157026,0.0284 -0.06182,0.005 -0.123834,0.0074 -0.185859,0.0071 -0.12498,5.79e-4 -0.249256,-0.01873 -0.368167,-0.05721 -0.112424,-0.03539 -0.215079,-0.09644 -0.299859,-0.178322 -0.08844,-0.08912 -0.156669,-0.19623 -0.200054,-0.314052 -0.05315,-0.14647 -0.07857,-0.301555 -0.07496,-0.457329 -0.0093,-0.198548 0.04169,-0.395267 0.146383,-0.564228 0.09449,-0.140171 0.223561,-0.253284 0.374821,-0.32869 0.155251,-0.07675 0.326472,-0.116218 0.49991,-0.114443 0.04922,8.69e-4 0.09803,0.0031 0.146824,0.008 z"
     id="path4"
     style="stroke-width:0.443578;fill:#f429b8;fill-opacity:1"
     sodipodi:nodetypes="ssssssssscsccccccccsscccccccccssccccccccccccccccccccccccccsscccscccccccccccccccccc" />
</svg>
