<?xml version="1.0" encoding="UTF-8" standalone="no"?>
<svg
   xmlns:dc="http://purl.org/dc/elements/1.1/"
   xmlns:cc="http://creativecommons.org/ns#"
   xmlns:rdf="http://www.w3.org/1999/02/22-rdf-syntax-ns#"
   xmlns:svg="http://www.w3.org/2000/svg"
   xmlns="http://www.w3.org/2000/svg"
   xmlns:sodipodi="http://sodipodi.sourceforge.net/DTD/sodipodi-0.dtd"
   xmlns:inkscape="http://www.inkscape.org/namespaces/inkscape"
   width="100mm"
   height="100mm"
   viewBox="0 0 100 100"
   version="1.1"
   id="svg864"
   inkscape:version="1.0.2-2 (e86c870879, 2021-01-15)"
   sodipodi:docname="portrait.svg">
  <defs
     id="defs858" />
  <sodipodi:namedview
     id="base"
     pagecolor="#ffffff"
     bordercolor="#666666"
     borderopacity="1.0"
     inkscape:pageopacity="0.0"
     inkscape:pageshadow="2"
     inkscape:zoom="0.7"
     inkscape:cx="407.69851"
     inkscape:cy="256.92239"
     inkscape:document-units="mm"
     inkscape:current-layer="layer1"
     inkscape:document-rotation="0"
     showgrid="false"
     inkscape:window-width="1313"
     inkscape:window-height="1030"
     inkscape:window-x="192"
     inkscape:window-y="0"
     inkscape:window-maximized="0" />
  <metadata
     id="metadata861">
    <rdf:RDF>
      <cc:Work
         rdf:about="">
        <dc:format>image/svg+xml</dc:format>
        <dc:type
           rdf:resource="http://purl.org/dc/dcmitype/StillImage" />
        <dc:title></dc:title>
      </cc:Work>
    </rdf:RDF>
  </metadata>
  <g
     inkscape:label="Ebene 1"
     inkscape:groupmode="layer"
     id="layer1">
    <path
       style="fill:#000000;fill-opacity:1;stroke:none;stroke-width:0.187868px;stroke-linecap:butt;stroke-linejoin:miter;stroke-opacity:1"
       d="m 25.433001,17.566864 c 0,0 -4.103709,13.416328 -4.397503,20.343523 -0.16897,3.983975 1.147171,-0.188366 1.529564,11.867053 0,0 0.685351,8.046081 0.382393,12.055421 -0.264493,3.500306 -0.955982,3.767318 -1.911957,10.360124 0,0 -1.275688,4.395354 -0.955983,6.592806 0.327782,2.253009 0.961512,4.930514 2.86794,6.21608 7.479944,5.043977 27.149837,1.50693 27.149837,1.50693 L 37.287155,17.566864 Z"
       id="path947"
       sodipodi:nodetypes="casasaaccc" />
    <path
       style="fill:#000000;fill-opacity:1;stroke:none;stroke-width:0.187868px;stroke-linecap:butt;stroke-linejoin:miter;stroke-opacity:1"
       d="m 73.996793,17.566864 c 0,0 4.359174,9.975365 5.162296,20.343523 0.307973,3.975891 -1.147179,-0.188366 -1.529571,11.867053 0,0 -0.685344,8.046081 -0.382386,12.055421 0.264493,3.500306 0.955975,3.767318 1.911957,10.360124 0,0 1.275687,4.395354 0.955982,6.592806 -0.327789,2.253009 -0.955982,3.390593 -2.867939,6.21608 -1.911964,2.825487 -27.14984,1.50693 -27.14984,1.50693 L 48.376531,17.943597 Z"
       id="path947-8"
       sodipodi:nodetypes="cssasasccc" />
    <path
       style="fill:#ffe6d5;stroke:none;stroke-width:0.187868px;stroke-linecap:butt;stroke-linejoin:miter;stroke-opacity:1"
       d="m 57.988748,64.962263 c -0.218803,13.451123 -0.945745,11.662154 15.295689,15.351827 15.686357,3.563574 15.865714,18.015265 15.486877,18.083135 l -76.860819,-0.18838 c 0,0 -0.174786,-14.970542 16.060474,-17.894755 2.079066,-0.37447 11.72458,-2.457853 13.096934,-3.861505 2.707689,-2.76945 1.625166,-8.382282 1.816362,-11.396136 0,0 6.787461,1.883663 7.456645,1.977843 0.669184,0.09419 7.647838,-2.072029 7.647838,-2.072029 z"
       id="path873"
       sodipodi:nodetypes="cssccsc" />
    <path
       style="fill:#4cbad5;fill-opacity:1;stroke:none;stroke-width:0.187868px;stroke-linecap:butt;stroke-linejoin:miter;stroke-opacity:1"
       d="m 50.245316,94.629899 c 8.973865,-0.03594 23.803907,-14.033263 23.803907,-14.033263 14.949742,1.651142 14.722091,17.800589 14.722091,17.800589 l -76.860812,-0.18838 c 0,0 -0.174786,-14.970542 16.060474,-17.894755 0,0 13.288324,14.351767 22.27434,14.315809 z"
       id="path873-5"
       sodipodi:nodetypes="sccccs" />
    <path
       style="fill:#ffccaa;fill-opacity:1;stroke:none;stroke-width:0.187868px;stroke-linecap:butt;stroke-linejoin:miter;stroke-opacity:1"
       d="m 42.749068,63.712231 0.230792,5.960866 c 0,0 4.871663,1.186016 7.356429,1.186193 2.566998,1.83e-4 7.600037,-1.224378 7.600037,-1.224378 l 0.286798,-5.274249 z"
       id="path921"
       sodipodi:nodetypes="ccaccc" />
    <path
       style="fill:#ffe6d5;fill-opacity:1;stroke:none;stroke-width:0.183846px;stroke-linecap:butt;stroke-linejoin:miter;stroke-opacity:1"
       d="m 70.339604,23.93925 c 0,0 2.589403,28.2373 -3.107273,34.364261 -5.696675,6.126968 -16.960547,9.190445 -16.960547,9.190445 0,0 -11.263883,-3.063477 -16.960558,-9.190445 C 27.614544,52.17655 30.203947,23.93925 30.203947,23.93925 l 20.067837,-0.399588 z"
       id="path899"
       sodipodi:nodetypes="cscsccc" />
    <path
       style="fill:#ffe6d5;fill-opacity:1;stroke:none;stroke-width:0.187868px;stroke-linecap:butt;stroke-linejoin:miter;stroke-opacity:1"
       d="m 33.420542,38.803772 -7.16539,-0.932366 c 0,0 -2.294629,3.266714 -2.02794,5.061403 0.506703,3.409883 3.109512,6.926124 6.48941,8.124883 3.379899,1.198759 2.70392,-12.25392 2.70392,-12.25392 z"
       id="path923"
       sodipodi:nodetypes="ccasc" />
    <path
       style="fill:#ffe6d5;fill-opacity:1;stroke:none;stroke-width:0.187868px;stroke-linecap:butt;stroke-linejoin:miter;stroke-opacity:1"
       d="m 68.453121,38.992406 7.16539,-0.932366 c 0,0 2.294628,3.266714 2.027939,5.061404 -0.506702,3.409882 -3.109504,6.926124 -6.489403,8.124882 -3.379906,1.198759 -2.703926,-12.25392 -2.703926,-12.25392 z"
       id="path923-7"
       sodipodi:nodetypes="ccasc" />
    <path
       style="fill:#000000;fill-opacity:1;stroke:#000000;stroke-width:0.187868px;stroke-linecap:butt;stroke-linejoin:miter;stroke-opacity:1"
       d="m 42.073088,22.687197 c 0,0 -2.163136,2.930287 -6.354212,4.928209 -1.857639,0.885555 -2.605048,2.439134 -3.379899,3.995843 -1.38169,2.775864 -1.747973,5.977914 -2.02794,9.057249 -0.313831,3.451801 0.405585,10.389194 0.405585,10.389194 0,0 -5.259842,-13.52544 -6.083817,-20.645194 -0.460182,-3.976244 -0.54079,-7.858498 0.675979,-11.987537 1.216762,-4.12904 3.244702,-6.526543 3.920682,-7.059328 0.675979,-0.532777 2.564021,-1.8359137 4.055878,-2.2643054 2.51273,-0.7215461 5.301849,-1.0234593 7.84137,-0.399589 0.509936,0.1252745 1.351959,0.7991697 1.351959,0.7991697 0,0 1.757552,-2.7970913 3.244709,-3.8626537 0,0 0.922417,-0.8307878 1.487157,-1.0655568 2.948825,-1.2258503 6.298725,-2.0673141 9.463713,-1.5983401 4.245072,0.6290153 8.38927,2.8042466 11.491663,5.7273809 3.25197,3.0640544 5.22029,7.3762094 6.624608,11.5879544 1.388593,4.164589 1.757544,10.655582 1.622354,13.053092 -0.135197,2.397503 -1.216769,7.192523 -2.703926,10.788776 l -1.48715,3.596262 -2.568729,4.795013 c 0,0 2.568729,-4.795013 1.081572,-17.448521 -0.06224,-0.52924 -0.270395,5.59419 -1.351959,9.057253 0,0 -2.206088,-5.63601 -4.055886,-7.991691 -2.012981,-2.5635 -7.435778,-6.393353 -7.435778,-6.393353 0,0 2.298334,5.860575 2.839117,6.260157 0.540782,0.399581 -8.459251,-1.419059 -11.897245,-3.729458 -2.540872,-1.70751 -4.292401,-4.425639 -5.81343,-7.059327 -0.451269,-0.781368 -0.946375,-2.530699 -0.946375,-2.530699 z"
       id="path861"
       sodipodi:nodetypes="csaacassaacsaaaassccssacsaac" />
  </g>
</svg>
