<svg xmlns="http://www.w3.org/2000/svg" width="238.265" height="137.956" viewBox="0 0 238.265 137.956">
  <defs>
    <style>
      .cls-1 {
        fill: #fff;
      }
    </style>
  </defs>
  <path id="Icon_awesome-cloud" data-name="Icon awesome-cloud" class="cls-1" d="M2.4,95.863c-8.281-25.281,6.315-45.172,21.18-56.783S60.608,21.958,79.4,21.958a37.6,37.6,0,0,1,18.9,4.989c9.823-14.781,28.156-24.7,49.184-24.7,31.347,0,56.737,22.048,56.737,49.27,0,.831-.035,1.663-.071,2.494,19.858,6.066,34.113,22.51,34.113,41.849,0,24.481-22.872,44.343-51.063,44.343H56.708C31.637,140.206,10.685,121.145,2.4,95.863Z" transform="translate(0 -2.25)"/>
</svg>
