<svg xmlns="http://www.w3.org/2000/svg" width="379.983" height="229.953" viewBox="0 0 379.983 229.953">
  <defs>
    <style>
      .cls-1 {
        fill: #fff;
      }
    </style>
  </defs>
  <path id="Icon_awesome-cloud" data-name="Icon awesome-cloud" class="cls-1" d="M376.149,158.29c13.206-42.14-10.071-75.295-33.777-94.648S283.325,35.1,253.353,35.1a57.975,57.975,0,0,0-30.142,8.315C207.546,18.778,178.308,2.25,144.773,2.25,94.781,2.25,54.29,39,54.29,84.376c0,1.386.057,2.772.113,4.158C22.734,98.646,0,126.055,0,158.29,0,199.1,36.476,232.2,81.435,232.2H289.546C329.528,232.2,362.942,200.43,376.149,158.29Z" transform="translate(0 -2.25)"/>
</svg>
