<svg xmlns="http://www.w3.org/2000/svg" width="396.209" height="247.457" viewBox="0 0 396.209 247.457">
  <defs>
    <style>
      .cls-1 {
        fill: #fff;
      }
    </style>
  </defs>
  <path id="Icon_awesome-cloud" data-name="Icon awesome-cloud" class="cls-1" d="M332.816,111.494c2.538-6,0-12.553,0-19.389-2.04-16.682-11.818-30.3-29.743-41.869S247.3,39.074,237.89,44.79C226.483,23.006,204.711,6.039,168,6.039,113.273,6.039,59.431,42.567,59.431,92.1c0,1.513.062,3.026.124,4.539C24.887,107.683,0,137.608,0,172.8c0,44.551,39.93,80.7,89.147,80.7H258.676c54.989-1.763,137.533-32.11,137.533-71.729C396.209,147.078,368.97,118.107,332.816,111.494Z" transform="translate(0 -6.039)"/>
</svg>
